<svg id="dartboard" xmlns="http://www.w3.org/2000/svg" xmlns:xlink="http://www.w3.org/1999/xlink" version="1.1" x="0px" y="0px" width="787px" height="774px" viewBox="0 0 787 774" enable-background="new 0 0 787 774" xml:space="preserve">
<g id="areas">
	<g id="s">
		<path id="s19" fill="#F7E9CD" d="M327.95 561.926c-1.952-0.825-3.879-1.693-5.795-2.581l66.1-138.906 c2.034 0.8 4.2 1.5 6.4 1.884L374.688 574.84C358.626 572.6 343 568.3 327.9 561.926z M358.728 696.9 l13.366-102.239c-17.849-2.479-35.233-7.257-51.936-14.321c-2.225-0.941-4.422-1.932-6.605-2.945l-44.31 93.1 c3.562 1.7 7.2 3.3 10.8 4.827C305.328 686.1 331.7 693.3 358.7 696.928z"/>
		<path id="s14" d="M215.161 362.688c2.248-16.062 6.555-31.707 12.914-46.739c0.825-1.952 1.693-3.879 2.581-5.796l138.907 66.1 c-0.828 2.034-1.463 4.165-1.884 6.372L215.161 362.688z M93.073 346.728l102.239 13.366c2.479-17.849 7.256-35.233 14.321-51.936 c0.941-2.225 1.932-4.422 2.945-6.605l-93.115-44.31c-1.667 3.562-3.29 7.15-4.828 10.8 C103.936 293.3 96.7 319.7 93.1 346.728z"/>
		<path id="s4" fill="#F7E9CD" d="M533.705 256.295c12.355 12.4 22.8 26.2 31.2 41.238l-135.129 73.5 c-1.18-1.886-2.539-3.646-4.054-5.26l105.77-111.661C532.237 254.9 533 255.6 533.7 256.295z M620.759 169.2 c-1.515-1.515-3.051-3.004-4.592-4.484l-70.903 74.852c0.869 0.8 1.7 1.7 2.6 2.5 c13.724 13.7 25.3 29.1 34.6 45.823l90.58-49.287C659.04 213.3 641.5 190 620.8 169.241z"/>
		<path id="s16" fill="#F7E9CD" d="M268.295 521.705c-12.355-12.355-22.796-26.175-31.207-41.238l135.129-73.528 c1.179 1.9 2.5 3.6 4.1 5.26l-105.77 111.661C269.763 523.1 269 522.4 268.3 521.705z M185.833 613.2 l70.903-74.852c-0.868-0.84-1.738-1.678-2.594-2.533c-13.724-13.725-25.313-29.081-34.638-45.823l-90.58 49.3 c14.036 25.4 31.5 48.7 52.3 69.437C182.756 610.3 184.3 611.8 185.8 613.243z"/>
		<path id="s9" fill="#F7E9CD" d="M232.372 306.542c8.066-16.491 18.461-31.617 31.017-45.137l111.66 105.8 c-1.425 1.691-2.689 3.522-3.766 5.471L232.372 306.542z M214.294 297.938c8.97-18.388 20.556-35.244 34.564-50.298 l-74.848-70.898c-21.495 22.955-39.214 48.724-52.84 76.883L214.294 297.938z"/>
		<path id="s7" d="M318.542 557.628c-16.491-8.065-31.616-18.461-45.137-31.017l105.769-111.66c1.691 1.4 3.5 2.7 5.5 3.8 L318.542 557.628z M309.939 575.706c-18.388-8.97-35.245-20.556-50.299-34.564l-70.898 74.8 c22.955 21.5 48.7 39.2 76.9 52.84L309.939 575.706z"/>
		<path id="s8" d="M228.074 462.051c-5.027-11.887-8.772-24.156-11.234-36.711l151.229-28.172c0.54 2.2 1.3 4.3 2.2 6.3 l-135.124 73.525C232.603 472.1 230.2 467.1 228.1 462.051z M127.005 535.812l90.584-49.29 c-2.885-5.424-5.546-10.981-7.956-16.681c-5.592-13.221-9.749-26.869-12.473-40.836L95.789 447.9 c4.072 21.2 10.3 42 18.8 62.082C118.373 518.8 122.5 527.4 127 535.812z"/>
		<path id="s12" d="M268.295 256.295c12.355-12.356 26.175-22.796 41.238-31.207l73.528 135.1 c-1.885 1.18-3.646 2.539-5.259 4.054l-111.662-105.77C266.855 257.8 267.6 257 268.3 256.295z M176.756 173.8 l74.853 70.903c0.839-0.868 1.677-1.738 2.533-2.594c13.724-13.724 29.08-25.313 45.823-34.639l-49.287-90.58 c-25.392 14.036-48.663 31.543-69.437 52.317C179.726 170.8 178.2 172.3 176.8 173.833z"/>
		<path id="s1" fill="#F7E9CD" d="M479.846 218.655l-66.101 138.907c-2.034-0.828-4.165-1.463-6.372-1.884l19.939-152.517 c16.062 2.2 31.7 6.6 46.7 12.914C476.002 216.9 477.9 217.8 479.8 218.655z M443.272 81.073l-13.365 102.2 c17.849 2.5 35.2 7.3 51.9 14.321c2.225 0.9 4.4 1.9 6.6 2.945l44.31-93.115c-3.562-1.667-7.15-3.29-10.786-4.828 C496.672 91.9 470.3 84.7 443.3 81.073z"/>
		<path id="s18" d="M483.458 220.372c16.491 8.1 31.6 18.5 45.1 31.017l-105.769 111.7 c-1.691-1.425-3.522-2.689-5.472-3.766L483.458 220.372z M492.061 202.294c18.388 9 35.2 20.6 50.3 34.564l70.898-74.847 c-22.955-21.496-48.725-39.215-76.883-52.84L492.061 202.294z"/>
		<path id="s20" d="M401 201.327c7.521 0 15 0.4 22.3 1.319l-19.938 152.518c-0.796-0.056-1.596-0.095-2.406-0.095 c-1.435 0-2.846 0.1-4.235 0.274l-28.171-151.236C379.217 202.3 390 201.3 401 201.327z M346.042 83.046l18.884 101.4 c11.825-2.069 23.87-3.111 36.074-3.111c8.396 0 16.7 0.5 24.9 1.484l13.367-102.25c-12.629-1.547-25.408-2.331-38.308-2.331 C382.4 78.2 364.1 79.8 346 83.046z"/>
		<path id="s5" fill="#F7E9CD" d="M327.95 216.074c11.887-5.028 24.156-8.772 36.711-11.234l28.17 151.2 c-2.177 0.54-4.271 1.29-6.26 2.229l-73.525-135.124C317.894 220.6 322.9 218.2 327.9 216.074z M254.187 115 l49.29 90.584c5.423-2.885 10.982-5.546 16.681-7.956c13.221-5.592 26.87-9.749 40.837-12.473L342.112 83.8 c-21.24 4.071-41.993 10.35-62.083 18.848C271.193 106.4 262.6 110.5 254.2 115.005z"/>
		<path id="s3" d="M401 576.674c-7.519 0-14.968-0.448-22.335-1.318l19.936-152.519c0.793 0.1 1.6 0.1 2.4 0.1 c1.432 0 2.84-0.1 4.226-0.272l28.165 151.237C422.772 575.7 412 576.7 401 576.674z M455.937 694.958l-18.88-101.377 c-11.819 2.066-23.858 3.108-36.057 3.108c-8.393 0-16.708-0.503-24.93-1.482l-13.365 102.2 c12.625 1.5 25.4 2.3 38.3 2.329C419.593 699.8 437.9 698.2 455.9 694.958z"/>
		<path id="s10" d="M586.84 415.312c-2.248 16.062-6.556 31.705-12.914 46.738c-0.825 1.951-1.693 3.879-2.581 5.8 l-138.906-66.101c0.828-2.034 1.463-4.166 1.884-6.373L586.84 415.312z M708.928 431.272l-102.239-13.365 c-2.479 17.849-7.257 35.231-14.321 51.935c-0.941 2.226-1.932 4.423-2.945 6.606l93.114 44.3 c1.667-3.562 3.289-7.15 4.827-10.786C698.064 484.7 705.3 458.3 708.9 431.272z"/>
		<path id="s17" fill="#F7E9CD" d="M474.051 561.926c-11.888 5.027-24.157 8.772-36.712 11.234l-28.171-151.229 c2.178-0.541 4.271-1.291 6.261-2.229l73.525 135.124C484.106 557.4 479.1 559.8 474.1 561.926z M547.812 663 l-49.29-90.584c-5.424 2.885-10.981 5.546-16.681 7.956c-13.222 5.592-26.87 9.748-40.837 12.473l18.883 101.4 c21.241-4.072 41.993-10.351 62.084-18.849C530.807 671.6 539.4 667.5 547.8 662.995z"/>
		<path id="s13" d="M573.926 315.95c5.027 11.9 8.8 24.2 11.2 36.711l-151.229 28.17c-0.541-2.177-1.291-4.271-2.229-6.26 l135.123-73.525C569.397 305.9 571.8 310.9 573.9 315.95z M674.995 242.188l-90.584 49.3 c2.885 5.4 5.5 11 8 16.681c5.592 13.2 9.7 26.9 12.5 40.837l101.372-18.883 c-4.072-21.24-10.351-41.992-18.849-62.083C683.627 259.2 679.5 250.6 675 242.188z"/>
		<path id="s2" d="M533.705 521.705c-12.355 12.355-26.175 22.797-41.238 31.207l-73.528-135.129c1.886-1.18 3.646-2.539 5.26-4.054 l111.661 105.77C535.145 520.2 534.4 521 533.7 521.705z M625.243 604.167l-74.852-70.902 c-0.84 0.868-1.678 1.738-2.533 2.594c-13.725 13.724-29.081 25.313-45.823 34.639l49.287 90.6 c25.391-14.035 48.662-31.543 69.437-52.317C622.273 607.2 623.8 605.7 625.2 604.167z"/>
		<path id="s6" fill="#F7E9CD" d="M434.658 384.765l151.235-28.172c1.847 10.6 2.8 21.4 2.8 32.4 c0 7.521-0.448 14.975-1.319 22.345l-152.518-19.938c0.056-0.796 0.095-1.596 0.095-2.406 C434.932 387.6 434.8 386.2 434.7 384.765z M605.578 352.926c2.068 11.8 3.1 23.9 3.1 36.1 c0 8.396-0.503 16.715-1.484 24.94l102.251 13.367c1.546-12.629 2.33-25.408 2.33-38.308c0-18.6-1.623-36.95-4.832-54.958 L605.578 352.926z"/>
		<path id="s11" fill="#F7E9CD" d="M95.046 443.96c-3.209-18.009-4.833-36.359-4.833-54.96c0-12.899 0.784-25.678 2.331-38.307 l102.25 13.367c-0.981 8.225-1.484 16.544-1.484 24.94c0 12.2 1 24.2 3.1 36.075L95.046 443.96z M367.069 389 c0-0.81 0.039-1.61 0.095-2.406l-152.518-19.938c-0.871 7.37-1.319 14.823-1.319 22.345c0 11 0.9 21.8 2.8 32.4 l151.236-28.173C367.169 391.8 367.1 390.4 367.1 389z"/>
		<path id="s15" fill="#F7E9CD" d="M569.628 471.458c-8.065 16.491-18.461 31.616-31.017 45.138L426.952 410.8 c1.425-1.691 2.688-3.522 3.766-5.471L569.628 471.458z M587.706 480.062c-8.97 18.388-20.556 35.244-34.564 50.299l74.847 70.9 c21.496-22.955 39.216-48.725 52.841-76.883L587.706 480.062z"/>
	</g>
	<g id="d">
		<path id="d2" fill="#ED3737" d="M622.88 610.88c-20.979 20.979-44.481 38.659-70.124 52.831l7.533 13.8 c30.7-16.899 54.398-35.119 78.62-60.443l-11.488-10.882C625.922 607.8 624.4 609.3 622.9 610.88z"/>
		<path id="d17" fill="#4F9962" d="M523.14 678.127c-20.291 8.582-41.251 14.923-62.702 19.034l2.886 15.5 c34.421-6.584 62.59-16.587 93.452-33.186l-7.529-13.838C540.768 670.2 532.1 674.4 523.1 678.127z"/>
		<path id="d15" fill="#4F9962" d="M630.166 603.32l11.494 10.888c23.974-25.555 40.883-50.205 56.096-81.778l-14.218-6.766 C669.777 554.1 651.9 580.1 630.2 603.32z"/>
		<path id="d6" fill="#4F9962" d="M725.388 330.608l-15.484 2.884c3.243 18.2 4.9 36.7 4.9 55.5 c0 13.03-0.792 25.939-2.355 38.696l15.643 2.045C732.446 395 731.6 365.1 725.4 330.608z"/>
		<path id="d14" fill="#ED3737" d="M111.874 266.859c1.555-3.676 3.195-7.305 4.881-10.906l-14.23-6.771 c-14.904 31.716-23.368 60.385-28.08 95.111l15.653 2.046C93.802 319 101.1 292.4 111.9 266.859z"/>
		<path id="d10" fill="#ED3737" d="M690.127 511.14c-1.555 3.677-3.195 7.306-4.882 10.907l14.229 6.8 c14.903-31.712 23.367-60.381 28.08-95.11l-15.652-2.046C708.198 459 700.9 485.6 690.1 511.14z"/>
		<path id="d11" fill="#4F9962" d="M87.214 389c0-13.03 0.792-25.938 2.355-38.696l-15.643-2.045 c-4.373 34.77-3.564 64.7 2.7 99.134l15.485-2.885C88.854 426.3 87.2 407.8 87.2 389z"/>
		<path id="d19_1_" fill="#4F9962" d="M278.859 678.127c-3.676-1.555-7.305-3.195-10.906-4.882l-6.771 14.2 c31.715 14.9 60.4 23.4 95.1 28.08l2.046-15.652C331.017 696.2 304.4 688.9 278.9 678.127z"/>
		<path id="d8" fill="#ED3737" d="M111.874 511.14c-8.583-20.291-14.923-41.249-19.034-62.701l-15.494 2.9 c6.585 34.4 16.6 62.6 33.2 93.45l13.837-7.529C119.825 528.8 115.6 520.1 111.9 511.14z"/>
		<path id="d16" fill="#4F9962" d="M179.12 610.88c-20.979-20.979-38.658-44.48-52.831-70.124l-13.844 7.5 c16.9 30.7 35.1 54.4 60.4 78.621l10.883-11.488C182.209 613.9 180.7 612.4 179.1 610.88z"/>
		<path id="d7" fill="#ED3737" d="M186.679 618.167l-10.888 11.494c25.558 24 50.2 40.9 81.8 56.095l6.765-14.217 C235.892 657.8 209.9 639.9 186.7 618.167z"/>
		<path id="d3" fill="#ED3737" d="M401 702.786c-13.026 0-25.93-0.792-38.684-2.354l-2.057 15.7 c14.603 1.8 28.2 2.8 41.6 2.828c0.001 0 0 0 0 0c18.557 0 37.397-1.848 57.523-5.491l-2.905-15.602 C438.306 701.1 419.8 702.8 401 702.786z"/>
		<path id="d1" fill="#4F9962" d="M523.14 99.874c3.677 1.6 7.3 3.2 10.9 4.882l6.771-14.23 c-31.719-14.905-60.387-23.369-95.11-28.079l-2.046 15.652C470.984 81.8 497.6 89.1 523.1 99.874z"/>
		<path id="d20" fill="#ED3737" d="M401 75.214c13.03 0 25.9 0.8 38.7 2.355l2.045-15.642 c-14.604-1.835-28.238-2.729-41.611-2.729c-18.558 0-37.395 1.772-57.521 5.416l2.884 15.5 C363.681 76.9 382.2 75.2 401 75.214z"/>
		<path id="d18" fill="#ED3737" d="M615.32 159.833l10.888-11.494c-25.557-23.974-50.207-40.882-81.778-56.095l-6.766 14.2 C566.107 120.2 592.1 138.1 615.3 159.833z"/>
		<path id="d5" fill="#4F9962" d="M278.859 99.874c20.292-8.583 41.251-14.923 62.703-19.034l-2.886-15.494 c-34.42 6.584-62.589 16.588-93.452 33.188l7.529 13.836C261.231 107.8 269.9 103.6 278.9 99.874z"/>
		<path id="d12" fill="#ED3737" d="M179.12 167.12c20.979-20.979 44.48-38.658 70.124-52.831l-7.533-13.843 c-30.701 16.9-54.399 35.119-78.621 60.442l11.489 10.882C176.078 170.2 177.6 168.7 179.1 167.12z"/>
		<path id="d9" fill="#4F9962" d="M171.833 174.679l-11.494-10.888c-23.975 25.557-40.883 50.207-56.095 81.779l14.218 6.8 C132.223 223.9 150.1 197.9 171.8 174.679z"/>
		<path id="d4" fill="#4F9962" d="M622.88 167.12c20.979 21 38.7 44.5 52.8 70.124l13.843-7.532 c-16.898-30.7-35.117-54.398-60.442-78.622l-10.883 11.489C619.791 164.1 621.3 165.6 622.9 167.12z"/>
		<path id="d13" fill="#ED3737" d="M690.127 266.859c8.582 20.3 14.9 41.3 19 62.703l15.494-2.886 c-6.587-34.424-16.591-62.592-33.188-93.451l-13.836 7.529C682.176 249.2 686.4 257.9 690.1 266.859z"/>
	</g>
	<g id="t">
		<path id="t10" fill="#ED3737" d="M603.714 417.519l-13.899-1.817c-2.282 16.329-6.661 32.233-13.125 47.5 c-0.843 1.992-1.729 3.96-2.636 5.917l12.659 6.023c0.994-2.145 1.967-4.301 2.891-6.485 C596.562 452.2 601.3 435.1 603.7 417.519z"/>
		<path id="t13" fill="#ED3737" d="M581.775 292.911l-12.314 6.701c2.618 4.9 5 10 7.2 15.2 c5.112 12.1 8.9 24.6 11.4 37.331l13.781-2.567c-2.685-13.755-6.779-27.197-12.287-40.217 C587.231 303.7 584.6 298.2 581.8 292.911z"/>
		<path id="t3" fill="#ED3737" d="M436.508 590.631l-2.567-13.784c-10.799 1.878-21.797 2.827-32.94 2.8 c-7.649 0-15.229-0.456-22.724-1.343l-1.817 13.9c8.094 1 16.3 1.5 24.5 1.5 C413.013 593.7 424.9 592.7 436.5 590.631z"/>
		<path id="t2" fill="#ED3737" d="M548.214 531.201l-10.177-9.639c-0.733 0.757-1.464 1.517-2.211 2.3 c-12.561 12.561-26.61 23.173-41.926 31.721l6.7 12.314c16.491-9.188 31.617-20.604 45.137-34.124 C546.574 532.9 547.4 532.1 548.2 531.201z"/>
		<path id="t8" fill="#ED3737" d="M220.225 485.089l12.315-6.701c-2.619-4.934-5.037-9.987-7.228-15.169 c-5.113-12.087-8.919-24.562-11.421-37.329l-13.781 2.566c2.685 13.8 6.8 27.2 12.3 40.2 C214.768 474.3 217.4 479.8 220.2 485.089z"/>
		<path id="t14" fill="#ED3737" d="M198.287 360.482l13.899 1.817c2.282-16.33 6.661-32.235 13.125-47.519 c0.843-1.992 1.729-3.959 2.635-5.916l-12.659-6.024c-0.995 2.145-1.967 4.301-2.891 6.5 C205.438 325.8 200.7 342.9 198.3 360.482z"/>
		<path id="t7" fill="#ED3737" d="M317.252 560.337c-16.775-8.201-32.16-18.774-45.91-31.548l-9.639 10.2 c14.825 13.8 31.4 25.2 49.5 34.033L317.252 560.337z"/>
		<path id="t9" fill="#4F9962" d="M229.663 305.252c8.202-16.776 18.775-32.161 31.548-45.911l-10.175-9.638 c-13.792 14.825-25.199 31.421-34.033 49.525L229.663 305.252z"/>
		<path id="t4" fill="#4F9962" d="M543.201 241.787l-9.64 10.176c0.758 0.7 1.5 1.5 2.3 2.2 c12.561 12.6 23.2 26.6 31.7 41.926l12.314-6.701c-9.188-16.491-20.604-31.617-34.124-45.136 C544.9 243.4 544 242.6 543.2 241.787z"/>
		<path id="t17" fill="#4F9962" d="M497.088 569.775l-6.7-12.314c-4.934 2.619-9.987 5.037-15.169 7.2 c-12.088 5.112-24.564 8.919-37.33 11.42l2.566 13.781c13.756-2.685 27.197-6.779 40.219-12.287 C486.281 575.2 491.8 572.6 497.1 569.775z"/>
		<path id="t15" fill="#4F9962" d="M572.337 472.748c-8.201 16.775-18.774 32.16-31.548 45.91l10.175 9.6 c13.792-14.825 25.199-31.422 34.033-49.525L572.337 472.748z"/>
		<path id="t18" fill="#ED3737" d="M490.771 205.003l-6.024 12.66c16.776 8.2 32.2 18.8 45.9 31.548l9.639-10.175 C525.472 225.2 508.9 213.8 490.8 205.003z"/>
		<path id="t20" fill="#ED3737" d="M365.476 187.372l2.567 13.784c10.804-1.88 21.808-2.83 32.957-2.83 c7.652 0 15.2 0.5 22.7 1.344l1.816-13.901c-8.097-0.964-16.285-1.459-24.551-1.459 C388.981 184.3 377.1 185.3 365.5 187.372z"/>
		<path id="t5" fill="#4F9962" d="M304.911 208.225l6.701 12.315c4.934-2.619 9.988-5.037 15.169-7.228 c12.087-5.113 24.564-8.919 37.331-11.421l-2.567-13.781c-13.755 2.685-27.197 6.779-40.218 12.3 C315.719 202.8 310.2 205.4 304.9 208.225z"/>
		<path id="t1" fill="#4F9962" d="M429.519 186.287l-1.817 13.899c16.33 2.3 32.2 6.7 47.5 13.1 c1.992 0.8 4 1.7 5.9 2.635l6.024-12.659c-2.145-0.995-4.301-1.967-6.485-2.891 C464.223 193.4 447.1 188.7 429.5 186.287z"/>
		<path id="t12" fill="#ED3737" d="M253.787 246.799l10.176 9.639c0.733-0.757 1.464-1.517 2.211-2.264 c12.56-12.561 26.61-23.173 41.926-31.721l-6.701-12.314c-16.491 9.188-31.617 20.605-45.136 34.1 C255.426 245.1 254.6 245.9 253.8 246.799z"/>
		<path id="t6" fill="#4F9962" d="M588.844 356.043c1.881 10.8 2.8 21.8 2.8 32.957c0 7.652-0.456 15.235-1.344 22.7 l13.9 1.816c0.964-8.097 1.459-16.286 1.459-24.551c0-12.019-1.026-23.88-3.062-35.524L588.844 356.043z"/>
		<path id="t11" fill="#4F9962" d="M213.157 421.958c-1.88-10.805-2.83-21.809-2.83-32.958c0-7.653 0.457-15.235 1.344-22.734 l-13.9-1.817c-0.964 8.097-1.459 16.286-1.459 24.551c0 12 1 23.9 3.1 35.525L213.157 421.958z"/>
		<path id="t19" fill="#4F9962" d="M372.482 591.714l1.817-13.899c-16.33-2.282-32.234-6.661-47.519-13.125 c-1.992-0.843-3.96-1.729-5.916-2.635l-6.023 12.658c2.144 1 4.3 2 6.5 2.9 C337.778 584.6 354.9 589.3 372.5 591.714z"/>
		<path id="t16" fill="#4F9962" d="M258.799 536.214l9.639-10.177c-0.757-0.733-1.517-1.464-2.264-2.211 c-12.561-12.56-23.173-26.609-31.721-41.926l-12.314 6.701c9.188 16.5 20.6 31.6 34.1 45.1 C257.1 534.6 257.9 535.4 258.8 536.214z"/>
	</g>
	<g id="bull">
		<path id="Outer" fill="#4F9962" d="M432.438 389c0 17.087-13.852 30.938-30.938 30.938S370.562 406.1 370.6 389 s13.852-30.938 30.938-30.938S432.438 371.9 432.4 389z M401.5 372.602c-9.057 0-16.398 7.342-16.398 16.4 s7.342 16.4 16.4 16.398s16.398-7.342 16.398-16.398S410.557 372.6 401.5 372.602z"/>
		<circle id="Bull" fill="#ED3737" cx="401.5" cy="389" r="13.7"/>
	</g>
</g>
<g id="score">
	<path id="score_1_" d="M371.787 33.895l8.835-6.745c2.192-1.72 3.035-2.833 3.035-4.249c0-1.483-1.045-2.394-2.63-2.394 s-2.833 0.911-4.687 3.035l-4.418-3.676c2.529-3.271 5.025-5.058 9.611-5.058c5.16 0 8.7 3.1 8.7 7.52v0.068 c0 3.777-1.956 5.732-5.463 8.262l-4.046 2.833h9.746v5.328h-18.682V33.895z M393.096 27.083v-0.067 c0-6.677 4.249-12.275 10.959-12.275s10.893 5.5 10.9 12.208v0.067c0 6.677-4.216 12.275-10.96 12.3 C397.244 39.3 393.1 33.8 393.1 27.083z M408.372 27.083v-0.067c0-3.743-1.787-6.475-4.384-6.475s-4.316 2.63-4.316 6.4 v0.067c0 3.8 1.8 6.5 4.4 6.475C406.686 33.5 408.4 30.8 408.4 27.083z M276.408 57.935l2.226-5.317 c2.324 1 4.3 1.3 6.2 0.689c2.056-0.659 2.978-2.089 2.462-3.694l-0.02-0.064c-0.516-1.605-2.184-2.168-4.143-1.54 c-1.381 0.443-2.382 1.296-3.235 2.277l-4.352-0.87l-3.015-11.604l15.027-4.821l1.648 5.138l-10.115 3.245l0.899 3.5 c0.873-0.811 1.829-1.472 3.339-1.956c4.046-1.298 8.428-0.225 10 4.656l0.021 0.064c1.607 5.009-1.256 9.221-6.715 11 C282.689 59.9 279.5 59.4 276.4 57.935z M171.124 101.515l-2.706 3.055l-3.958-3.388l4.485-5.612l3.867-2.766l13.83 19.3 l-5.239 3.747L171.124 101.515z M186.548 106.156l3.262-10.626c0.782-2.674 0.82-4.07-0.003-5.222 c-0.863-1.207-2.243-1.339-3.532-0.417s-1.774 2.389-2.047 5.196l-5.731-0.42c0.154-4.132 1.145-7.038 4.874-9.706 c4.197-3.001 8.861-2.565 11.5 1.055l0.04 0.055c2.196 3.1 1.7 5.8 0.4 9.897l-1.644 4.658l7.927-5.669l3.1 4.3 l-15.195 10.869L186.548 106.156z M108.278 192.569l-1.795-5.159c1.994-0.534 3.407-1.417 4.534-2.932 c1.61-2.165 0.96-4.456-1.294-6.51c0.195 1.659-0.189 3.475-1.437 5.152c-2.737 3.68-7.002 4.668-10.709 1.911l-0.054-0.04 c-4.194-3.119-4.506-8.352-1.285-12.681c2.052-2.76 4.044-3.8 6.545-4.168c2.379-0.373 5.2 0.3 8.7 2.94l0.054 0 c6.196 4.6 8.1 10.8 3.9 16.515C113.34 190.5 110.9 191.8 108.3 192.569z M105.102 174.406l-0.054-0.041 c-1.462-1.087-3.356-0.856-4.583 0.794c-1.229 1.65-0.891 3.5 0.6 4.543l0.055 0.04c1.434 1.1 3.3 0.8 4.502-0.854 S106.482 175.4 105.1 174.406z M46.521 290.226l-0.424 4.06l-5.19-0.454l0.383-7.174l1.536-4.5l22.499 7.683l-2.081 6.1 L46.521 290.226z M65.91 273.936l-3.694 10.818l-4.721-0.471l-9.831-16.292l2.136-6.255l13.531 4.62l0.97-2.84l4.628 1.6 l-0.97 2.841l4.34 1.481l-2.049 6L65.91 273.936z M61.314 272.366l-6.415-2.19l4.595 7.519L61.314 272.366z M33.399 398.9 l0.837 3.995l-5.081 1.154l-1.827-6.948l0.088-4.755l23.77 0.443l-0.12 6.439L33.399 398.884z M33.664 384.658l0.837 4 l-5.081 1.153l-1.827-6.948l0.088-4.754l23.77 0.442l-0.12 6.44L33.664 384.658z M64.986 508.582l-0.064 0 c-2.745 0.824-4.829-0.135-6.59-2.246c-0.445 2.035-1.523 3.838-3.978 4.575l-0.064 0.02c-3.617 1.087-7.336-1.564-8.859-6.635 c-1.523-5.07 0.119-9.331 3.736-10.417l0.064-0.02c2.455-0.738 4.3 0.2 5.8 1.625c0.377-2.613 1.419-4.651 4.229-5.496 l0.065-0.019c4.037-1.213 7.8 1.9 9.4 7.302C70.443 502.7 68.9 507.4 65 508.582z M51.701 499.404l-0.064 0 c-1.26 0.378-2.07 1.783-1.556 3.495c0.515 1.7 1.9 2.4 3.2 2.069l0.064-0.02c1.421-0.427 2.157-1.845 1.652-3.524 C54.485 499.8 53.1 499 51.7 499.404z M60.598 496.203l-0.064 0.02c-1.453 0.437-2.047 2.094-1.475 4 s1.981 3 3.4 2.524l0.064-0.02c1.356-0.407 2.202-1.93 1.571-4.028S61.955 495.8 60.6 496.203z M110.14 614.5 l3.004 2.764l-3.461 3.893l-5.528-4.588l-2.693-3.918l19.591-13.469l3.649 5.309L110.14 614.514z M115.495 595 c-0.451 2.438-1.997 4.892-5.638 7.396l-0.056 0.037c-6.058 4.165-12.696 4.391-16.879-1.695c-1.873-2.723-2.421-5.128-2.312-7.945 l5.545-0.088c-0.068 1.8 0.1 3.3 1.2 4.875c1.566 2.3 4 2.3 6.7 0.821c-1.485-0.493-3.068-1.247-4.386-3.165 c-2.35-3.418-2.246-7.908 1.645-10.584l0.056-0.037c4.363-3 9.391-1.342 12.3 2.9 C115.521 590.3 115.9 592.7 115.5 595.04z M105.232 589.695l-0.056 0.039c-1.389 0.955-1.775 2.775-0.61 4.5 s2.937 1.9 4.3 0.994l0.055-0.038c1.417-0.974 1.803-2.794 0.638-4.489C108.421 589 106.6 588.7 105.2 589.695z M180.896 683.969l8.644 6.682l-3.362 4.349l-14.38-11.116l3.011-3.896l19.67-8.407l5.709 4.413L180.896 683.969z M295.708 741.9 l4.051 0.499l-0.55 5.181l-7.166-0.516l-4.471-1.62l8.1-22.352l6.056 2.194L295.708 741.924z M291.046 723.914l-4.425 3.2 c-1.085-1.757-2.337-2.855-4.112-3.498c-2.537-0.92-4.543 0.361-5.863 3.111c1.532-0.664 3.382-0.818 5.347-0.106 c4.312 1.6 6.5 5.4 4.9 9.707l-0.023 0.062c-1.781 4.914-6.703 6.718-11.775 4.88c-3.233-1.172-4.802-2.781-5.875-5.07 c-1.042-2.172-1.169-5.087 0.312-9.177l0.023-0.063c2.631-7.26 8.037-10.896 14.695-8.483 C287.561 719.7 289.6 721.6 291 723.914z M274.563 732.182l-0.022 0.062c-0.621 1.7 0.1 3.5 2.1 4.2 c1.934 0.7 3.567-0.142 4.188-1.854l0.023-0.063c0.608-1.681-0.18-3.364-2.113-4.065 C276.782 729.7 275.1 730.6 274.6 732.182z M406.18 743.311l-4.264 3.958c-1.621-1.782-3.371-2.825-5.527-2.905 c-1.854-0.068-3.068 0.83-3.122 2.279l-0.002 0.067c-0.057 1.5 1.3 2.5 3.8 2.569l2.763 0.104l0.817 3.438l-5.607 4.7 l9.031 0.336l-0.197 5.291l-17.051-0.635l0.174-4.685l5.808-4.609c-3.343-0.866-6.002-2.855-5.853-6.866l0.002-0.066 c0.178-4.785 4.134-7.709 9.392-7.514C400.843 738.9 404 740.7 406.2 743.311z M519.986 737.819l3.586-1.95l2.566 4.5 l-6.129 3.749l-4.578 1.283l-6.416-22.893l6.203-1.737L519.986 737.819z M499.682 743.964l10.521-2.948l1.482 5.293l-17.502 4.9 l-1.328-4.741l4.992-20.801l6.949-1.947L499.682 743.964z M600.547 692.956l3.656-10.497c0.881-2.643 0.971-4.036 0.191-5.218 c-0.818-1.238-2.192-1.422-3.516-0.548c-1.322 0.873-1.861 2.32-2.238 5.115l-5.712-0.633c0.308-4.123 1.405-6.99 5.232-9.518 c4.306-2.843 8.95-2.233 11.4 1.48l0.037 0.057c2.082 3.2 1.5 5.861-0.005 9.904l-1.815 4.594l8.132-5.371l2.937 4.4 l-15.59 10.295L600.547 692.956z M672.174 611.85l-1.781 3.672l-4.725-2.194l2.803-6.614l2.978-3.707l18.535 14.888l-4.033 5 L672.174 611.85z M689.27 613.561l-1.074-5.664c2.466-0.485 4.342-1.313 5.588-2.865c1.352-1.682 1.334-3.383 0.02-4.439 l-0.053-0.042c-1.314-1.056-3.017-0.606-4.305 0.997c-0.908 1.131-1.273 2.395-1.445 3.684l-4.111 1.672l-8.91-8.021l9.883-12.305 l4.206 3.379l-6.651 8.281l2.66 2.396c0.281-1.158 0.715-2.236 1.707-3.473c2.662-3.312 6.909-4.832 10.905-1.621l0.053 0 c4.102 3.3 4 8.4 0.4 12.857C695.566 611.7 692.6 613.1 689.3 613.561z M506.312 36.264l-4.065-0.366l0.381-5.196 l7.178 0.282l4.521 1.473l-7.365 22.604l-6.123-1.995L506.312 36.264z M602.149 80.026l-3.75-1.611l1.976-4.82l6.736 2.5 l3.84 2.805l-14.024 19.197l-5.201-3.8L602.149 80.026z M603.352 94.728l0.039-0.055c1.691-2.314 3.931-2.809 6.609-2.188 c-0.873-1.892-1.102-3.979 0.41-6.049l0.039-0.055c2.229-3.049 6.793-3.181 11.068-0.057c4.274 3.1 5.5 7.5 3.3 10.6 l-0.039 0.055c-1.512 2.069-3.57 2.486-5.638 2.229c1.277 2.3 1.7 4.565-0.055 6.935l-0.04 0.1 c-2.486 3.404-7.365 3.224-11.939-0.118C602.54 102.7 600.9 98 603.4 94.728z M614.321 101.948l0.04-0.055 c0.895-1.225 0.367-2.904-1.238-4.078c-1.607-1.174-3.367-1.165-4.263 0.061l-0.04 0.055c-0.835 1.143-0.591 2.9 1.2 4.2 C611.77 103.4 613.5 103.1 614.3 101.948z M619.482 94.025l0.04-0.055c0.775-1.062 0.573-2.671-0.869-3.726 c-1.444-1.055-3.019-0.785-3.795 0.277l-0.04 0.055c-0.875 1.197-0.605 2.8 0.8 3.8 C617.045 95.4 618.6 95.2 619.5 94.025z M685.465 176.235l-6.682-9.275l3.118-3.576l18.976 1.418l3.863 5.4 l-11.602 8.356l1.754 2.435l-3.969 2.859l-1.754-2.436l-3.721 2.68l-3.705-5.144L685.465 176.235z M689.406 173.397l5.499-3.962 l-8.791-0.608L689.406 173.397z M741.448 247.036l-2.189-3.445l4.351-2.868l4.154 5.861l1.591 4.481l-22.405 7.951l-2.153-6.07 L741.448 247.036z M731.415 260.507l5.253 2.502c-1.057 2.164-1.38 4.175-0.658 6.209c0.62 1.7 1.9 2.5 3.3 2.1 l0.062-0.022c1.431-0.508 1.826-2.115 1.003-4.436l-0.925-2.605l2.894-2.029l6.424 3.48l-3.022-8.517l4.99-1.771l5.707 16.1 l-4.418 1.567l-6.428-3.694c0.429 3.426-0.438 6.632-4.22 7.974l-0.063 0.023c-4.513 1.602-8.69-0.996-10.449-5.953 C729.312 267.1 729.8 263.5 731.4 260.507z M753.729 370.365c1.734-1.772 4.386-2.947 8.803-2.994l0.068-0.001 c7.351-0.078 13 3.4 13.1 10.82c0.035 3.305-0.851 5.607-2.512 7.885l-4.652-3.02c1.062-1.462 1.757-2.817 1.736-4.706 c-0.029-2.765-2.101-4.126-5.072-4.397c0.958 1.2 1.9 2.7 1.9 5.072c0.044 4.147-2.548 7.817-7.269 7.868l-0.066 0 c-5.295 0.057-8.543-4.125-8.598-9.284C751.072 374.3 752.1 372.1 753.7 370.365z M759.266 380.524l0.067-0.001 c1.687-0.018 3.021-1.314 2.999-3.371c-0.021-2.057-1.35-3.257-3.035-3.238h-0.068c-1.719 0.019-3.055 1.314-3.032 3.4 C756.219 379.3 757.5 380.5 759.3 380.524z M735.133 496.857l-0.289 4.071l-5.202-0.28l0.144-7.184l1.387-4.548 l22.741 6.93l-1.877 6.161L735.133 496.857z M743.758 488.912l-0.064-0.02c-6.387-1.945-10.503-7.642-8.547-14.062 c1.956-6.419 8.466-8.807 14.853-6.86l0.064 0.02c6.387 1.9 10.5 7.6 8.5 14.1 C756.645 488.5 750.1 490.9 743.8 488.912z M748.211 474.3l-0.064-0.02c-3.58-1.091-6.715-0.178-7.471 2.3 c-0.758 2.5 1.3 4.9 4.9 5.997l0.064 0.02c3.613 1.1 6.7 0.2 7.472-2.306 C753.849 477.8 751.8 475.4 748.2 474.3z"/>
</g>
</svg>